<?xml version="1.0" standalone="no"?>
<!DOCTYPE svg PUBLIC "-//W3C//DTD SVG 20010904//EN"
 "http://www.w3.org/TR/2001/REC-SVG-20010904/DTD/svg10.dtd">
<svg version="1.0" xmlns="http://www.w3.org/2000/svg"
 width="50.000000pt" height="50.000000pt" viewBox="0 0 920.000000 512.000000"
 preserveAspectRatio="xMidYMid meet">
<metadata>
Created by potrace 1.16, written by Peter Selinger 2001-2019
</metadata>
<g transform="translate(0.000000,512.000000) scale(0.100000,-0.100000)"
fill="#ffffff" stroke="none">
<path d="M2948 4729 c-325 -34 -596 -279 -663 -601 -31 -146 -12 -342 46 -473
54 -123 162 -258 218 -270 67 -14 141 58 126 124 -3 15 -28 55 -56 87 -100
118 -145 251 -136 399 9 144 55 251 151 354 110 117 242 172 411 172 155 0
270 -43 383 -141 63 -56 119 -60 166 -13 59 58 40 122 -60 201 -159 126 -368
184 -586 161z"/>
<path d="M6051 4730 c-148 -21 -288 -81 -398 -171 -77 -63 -95 -106 -68 -162
20 -43 71 -71 112 -61 15 4 48 23 73 44 122 100 235 142 385 142 201 0 366
-88 476 -255 64 -98 84 -173 83 -307 -1 -159 -35 -249 -138 -370 -25 -29 -48
-65 -51 -81 -15 -66 59 -139 126 -124 55 12 165 148 218 270 80 182 80 438 0
620 -74 169 -217 315 -382 391 -120 54 -305 82 -436 64z"/>
<path d="M4383 4409 c-885 -103 -1586 -817 -1672 -1703 -34 -347 31 -710 181
-1011 136 -272 334 -513 555 -679 l89 -66 -108 -215 c-60 -119 -108 -228 -108
-243 0 -42 34 -88 74 -102 31 -10 42 -9 74 7 34 16 46 36 144 230 l108 212 85
-40 c350 -164 782 -215 1165 -138 131 26 313 85 425 138 l85 40 108 -212 c98
-194 110 -214 144 -230 32 -16 43 -17 74 -7 40 13 74 60 74 101 0 15 -49 124
-109 242 l-109 215 89 66 c48 37 130 108 181 159 314 311 501 697 553 1137
121 1022 -616 1962 -1643 2094 -130 17 -338 19 -459 5z m378 -210 c295 -30
576 -135 819 -307 122 -86 306 -270 392 -392 300 -423 389 -963 242 -1460 -78
-260 -214 -490 -413 -693 -236 -242 -520 -399 -856 -474 -154 -34 -414 -42
-575 -19 -384 56 -704 219 -976 498 -109 111 -175 197 -249 322 -291 495 -306
1109 -39 1626 314 606 980 968 1655 899z"/>
<path d="M4550 3997 c-14 -7 -33 -28 -42 -47 -16 -32 -18 -81 -18 -575 l0
-541 -35 -13 c-48 -17 -126 -95 -155 -155 -34 -72 -39 -182 -10 -258 28 -75
96 -150 168 -185 49 -24 69 -28 142 -28 73 0 93 4 142 28 71 35 140 110 167
183 25 64 27 160 6 219 l-14 40 274 275 c262 263 275 278 275 313 0 51 -23 92
-60 107 -65 27 -77 18 -365 -270 -230 -229 -273 -269 -292 -264 l-23 6 0 539
c0 592 0 593 -59 623 -36 19 -67 20 -101 3z"/>
</g>
</svg>
