<?xml version="1.0" standalone="no"?>
<!DOCTYPE svg PUBLIC "-//W3C//DTD SVG 20010904//EN"
 "http://www.w3.org/TR/2001/REC-SVG-20010904/DTD/svg10.dtd">
<svg version="1.0" xmlns="http://www.w3.org/2000/svg"
 width="25.000000pt" height="25.000000pt" viewBox="0 0 225.000000 225.000000"
 preserveAspectRatio="xMidYMid meet">
<metadata>
Created by potrace 1.16, written by Peter Selinger 2001-2019
</metadata>
<g transform="translate(0.000000,225.000000) scale(0.100000,-0.100000)"
fill="#ffffff" stroke="none">
<path d="M930 1940 c0 -18 7 -20 85 -20 l85 0 0 -74 0 -73 -67 -6 c-139 -12
-299 -79 -416 -174 -73 -60 -170 -180 -162 -201 3 -7 0 -10 -5 -7 -5 3 -21
-18 -34 -48 -98 -213 -88 -463 27 -667 49 -86 199 -245 223 -236 8 3 12 2 9
-4 -3 -5 23 -24 57 -43 317 -175 708 -121 958 133 91 93 150 193 186 318 23
83 26 105 22 215 -4 97 -10 138 -31 204 -31 92 -59 135 -77 117 -9 -9 -3 -35
23 -105 19 -52 38 -122 41 -156 l7 -62 -98 -3 c-84 -3 -98 -5 -101 -20 -3 -16
7 -18 98 -18 65 0 99 4 95 10 -3 6 0 17 9 25 9 9 13 27 10 47 -4 25 -2 29 5
18 12 -17 5 -71 -10 -81 -6 -3 -10 -9 -9 -13 5 -14 -12 -124 -27 -176 -52
-182 -202 -354 -383 -439 -74 -35 -207 -71 -262 -71 l-37 0 -3 93 c-3 84 -5
92 -23 92 -18 0 -20 -8 -23 -92 l-3 -93 -37 0 c-20 0 -73 9 -117 20 -301 76
-515 311 -550 603 -7 51 -9 56 -24 45 -14 -11 -14 -11 -4 2 6 8 11 19 11 25 0
5 5 10 11 11 7 2 8 1 1 -3 -28 -14 11 -23 101 -23 90 0 100 2 97 18 -3 15 -17
17 -102 20 l-98 3 7 62 c10 84 48 187 100 272 50 80 157 188 229 230 27 16 44
31 38 33 -7 2 -12 8 -12 14 0 6 6 5 15 -2 12 -10 21 -10 38 -2 69 35 210 72
271 72 25 0 25 -1 28 -92 3 -85 5 -93 23 -93 18 0 20 8 23 94 l3 94 57 -7
c113 -13 244 -58 314 -108 30 -21 48 -17 48 11 0 38 -226 127 -352 138 l-68 6
0 73 0 74 85 0 c78 0 85 2 85 20 0 19 -7 20 -195 20 -188 0 -195 -1 -195 -20z"/>
<path d="M1717 1575 c-29 -32 -45 -59 -41 -66 4 -7 3 -9 -4 -5 -14 8 -304
-313 -295 -327 3 -6 1 -7 -4 -4 -6 4 -43 -29 -82 -72 -68 -76 -90 -108 -53
-80 15 13 16 12 3 -4 -8 -9 -16 -15 -19 -12 -3 3 -14 -2 -24 -11 -13 -13 -21
-14 -31 -6 -10 9 -17 8 -27 -1 -12 -10 -12 -9 0 6 12 16 9 22 -20 52 -23 24
-37 32 -45 25 -12 -10 -43 17 -59 50 -4 8 1 4 12 -9 18 -22 52 -38 52 -24 0
10 -162 183 -171 183 -5 0 -12 -7 -15 -15 -4 -9 41 -67 121 -160 109 -124 130
-143 143 -133 12 10 16 11 19 0 3 -6 10 -9 16 -6 7 4 6 1 -2 -7 -10 -11 -15
-11 -18 -1 -3 6 -9 10 -14 6 -14 -8 -11 -21 8 -28 25 -10 104 71 97 99 -3 14
3 28 23 45 15 14 22 18 15 9 -6 -9 -8 -20 -4 -24 4 -5 1 -5 -6 -1 -12 7 -30
-20 -19 -30 8 -8 522 566 525 587 6 36 -32 19 -81 -36z"/>
</g>
</svg>
