<?xml version="1.0" standalone="no"?>
<!DOCTYPE svg PUBLIC "-//W3C//DTD SVG 20010904//EN"
 "http://www.w3.org/TR/2001/REC-SVG-20010904/DTD/svg10.dtd">
<svg version="1.0" xmlns="http://www.w3.org/2000/svg"
 width="25.000000pt" height="25.000000pt" viewBox="0 0 225.000000 225.000000"
 preserveAspectRatio="xMidYMid meet">
<metadata>
Created by potrace 1.16, written by Peter Selinger 2001-2019
</metadata>
<g transform="translate(0.000000,225.000000) scale(0.100000,-0.100000)"
fill="#ffffff" stroke="none">
<path d="M970 2239 c-364 -47 -708 -303 -865 -641 -323 -700 139 -1509 908
-1590 700 -74 1303 529 1229 1229 -67 636 -636 1084 -1272 1002z m331 -84
c220 -41 393 -130 551 -283 423 -410 423 -1084 0 -1494 -512 -496 -1346 -352
-1664 287 -254 510 -43 1136 472 1395 193 97 435 133 641 95z"/>
<path d="M870 1525 c-16 -19 -15 -21 91 -198 80 -131 92 -158 90 -193 -1 -28
5 -48 18 -66 20 -24 21 -42 23 -338 3 -290 4 -314 21 -324 15 -9 22 -7 38 13
18 23 19 40 19 328 -1 189 3 309 9 317 38 46 25 115 -25 134 -23 8 -50 45
-129 176 -79 132 -104 166 -121 166 -12 0 -27 -7 -34 -15z"/>
</g>
</svg>
