<?xml version="1.0" standalone="no"?>
<!DOCTYPE svg PUBLIC "-//W3C//DTD SVG 20010904//EN"
 "http://www.w3.org/TR/2001/REC-SVG-20010904/DTD/svg10.dtd">
<svg version="1.0" xmlns="http://www.w3.org/2000/svg"
 width="30.000000pt" height="30.000000pt" viewBox="0 0 211.000000 239.000000"
 preserveAspectRatio="xMidYMid meet">
<metadata>
Created by potrace 1.16, written by Peter Selinger 2001-2019
</metadata>
<g transform="translate(0.000000,239.000000) scale(0.100000,-0.100000)"
fill="#ffffff" stroke="none">
<path d="M850 2280 c-41 -41 -10 -110 50 -110 l30 0 0 -63 0 -63 -79 -18
c-100 -23 -230 -76 -300 -122 l-54 -36 -73 73 -74 74 -115 -115 -115 -115 74
-75 c71 -71 74 -76 59 -95 -32 -42 -113 -223 -135 -305 -19 -73 -23 -108 -22
-245 0 -122 4 -176 18 -225 62 -228 174 -402 341 -536 98 -79 222 -144 341
-180 120 -36 329 -45 455 -19 609 123 950 770 709 1348 -17 40 -46 98 -65 128
l-34 54 64 65 65 65 -115 115 -115 115 -64 -64 -63 -63 -54 35 c-79 50 -186
94 -289 120 l-90 22 0 62 c0 62 0 63 28 63 34 0 72 36 72 68 0 12 -9 31 -20
42 -19 19 -33 20 -215 20 -182 0 -196 -1 -215 -20z m440 -407 c231 -66 412
-219 520 -438 61 -125 85 -226 85 -365 0 -227 -75 -414 -231 -579 -283 -300
-743 -346 -1078 -107 -279 199 -410 549 -330 886 22 91 103 253 164 328 210
256 555 365 870 275z"/>
<path d="M1157 1673 c-28 -105 -92 -390 -103 -460 -4 -24 -10 -43 -15 -43 -4
0 -21 -14 -38 -31 -24 -23 -31 -39 -31 -69 0 -102 138 -140 185 -50 20 39 19
69 -6 109 -18 30 -19 39 -9 105 17 113 60 478 60 509 0 54 -18 25 -43 -70z"/>
</g>
</svg>
