<?xml version="1.0" standalone="no"?>
<!DOCTYPE svg PUBLIC "-//W3C//DTD SVG 20010904//EN"
 "http://www.w3.org/TR/2001/REC-SVG-20010904/DTD/svg10.dtd">
<svg version="1.0" xmlns="http://www.w3.org/2000/svg"
 width="25.000000pt" height="25.000000pt" viewBox="0 0 225.000000 225.000000"
 preserveAspectRatio="xMidYMid meet">
<metadata>
Created by potrace 1.16, written by Peter Selinger 2001-2019
</metadata>
<g transform="translate(0.000000,225.000000) scale(0.100000,-0.100000)"
fill="#ffffff" stroke="none">
<path d="M1130 1950 l0 -300 40 0 40 0 0 255 0 255 43 -6 c331 -48 610 -236
773 -521 202 -355 172 -802 -76 -1132 -141 -186 -336 -316 -569 -379 -83 -22
-117 -25 -251 -26 -128 0 -170 3 -243 22 -384 96 -673 385 -769 769 -19 73
-22 115 -22 243 1 135 4 168 27 255 36 134 111 281 196 387 l70 86 -30 28 -29
28 -26 -25 c-52 -47 -146 -184 -189 -274 -171 -357 -145 -773 69 -1104 55 -86
186 -225 276 -292 36 -27 110 -72 165 -99 318 -157 682 -157 1000 0 124 62
207 124 313 234 178 186 276 400 304 661 55 534 -286 1039 -803 1189 -75 21
-227 46 -286 46 l-23 0 0 -300z"/>
<path d="M560 1684 c0 -15 409 -582 459 -637 72 -79 168 -72 221 15 36 59 21
118 -43 175 -37 33 -462 342 -564 411 -62 42 -73 47 -73 36z"/>
</g>
</svg>
